<?xml version="1.0" encoding="utf-8"?>
<!-- Generator: Adobe Illustrator 22.1.0, SVG Export Plug-In . SVG Version: 6.00 Build 0)  -->
<svg version="1.1" id="Layer_1" xmlns="http://www.w3.org/2000/svg" xmlns:xlink="http://www.w3.org/1999/xlink" x="0px" y="0px"
	 viewBox="0 0 311.5 82.5" style="enable-background:new 0 0 311.5 82.5;" xml:space="preserve">
<style type="text/css">
	.st0{fill:#D1D3D4;}
	.st1{fill:#FFFFFF;}
	.st2{fill:#F6D80E;}
	.st3{fill:#F8D906;}
</style>
<path class="st0" d="M9.1,46.8c-1.9-1.4-3.3-3.1-4.2-5.1c-1.1-2.2-1.6-4.6-1.6-7.2V3h7.4v31.4c0,2.8,1,5,2.9,6.5
	c1.8,1.4,4.4,2.2,7.2,2.2c2.8,0,5.4-0.8,7.2-2.2c1.9-1.5,2.9-3.7,2.9-6.5V3h7.5v31.4c0,2.6-0.6,5.1-1.6,7.2c-1,2-2.4,3.7-4.2,5.1
	c-3.1,2.4-7.3,3.8-11.8,3.8C16.4,50.6,12.2,49.2,9.1,46.8"/>
<polygon class="st0" points="55.4,20 55.4,50.6 48,50.6 48,0.8 77.8,33.5 77.8,3 85.3,3 85.3,52.8 "/>
<rect x="95.3" y="3" class="st0" width="7.4" height="47.6"/>
<path class="st1" d="M149.3,32.6v12.9l-1.7,1.2c-0.1,0-0.1,0-0.1,0.1c-0.1,0.1-0.2,0.1-0.3,0.1c-0.1,0.1-0.1,0.1-0.2,0.1
	c-0.1,0.1-0.1,0.1-0.3,0.1c-0.1,0.1-0.1,0.1-0.3,0.2c-0.1,0.1-0.1,0.1-0.2,0.1c-0.1,0.1-0.1,0.1-0.2,0.1c-0.1,0.1-0.2,0.1-0.3,0.1
	c-0.1,0.1-0.1,0.1-0.2,0.1c-0.1,0.1-0.2,0.1-0.3,0.1l-0.1,0.1h-0.1c-0.1,0.1-0.2,0.1-0.3,0.2c-0.1,0.1-0.3,0.1-0.4,0.2l-0.1,0.1
	c-2.7,1.2-5.5,1.9-8.5,2.1h-0.1h-0.5h-0.1h-0.6c-2.6,0-5.1-0.4-7.5-1.2h-0.1c-0.3-0.1-0.4-0.2-0.7-0.3c-0.3-0.1-0.6-0.3-1-0.4
	c-0.8-0.3-1.6-0.7-2.3-1.2c-1.9-1-3.7-2.4-5.3-4c-2.2-2.2-3.9-4.7-5.1-7.6c-0.9-2.2-1.5-4.5-1.7-6.9c-0.1-0.8-0.1-1.6-0.1-2.4v-1.2
	c0.2-2.8,0.8-5.5,1.9-8.1c1.2-2.8,2.9-5.4,5.1-7.6c2.2-2.2,4.7-3.9,7.6-5.1c2.9-1.3,6-1.9,9.2-1.9h0.6h0.1h0.5h0.1
	c0.2,0,0.4,0,0.6,0.1c2.8,0.2,5.4,0.8,8,2c0,0,0,0.1,0.1,0.1c0.1,0.1,0.3,0.1,0.4,0.2h0.1v8.8c-1-0.8-2.1-1.5-3.2-2.1
	c-1-0.4-2-0.8-2.9-1.1c-0.1,0-0.1,0-0.2-0.1h-0.2c-0.1-0.1-0.1-0.1-0.3-0.1c0,0-0.1,0-0.1-0.1c-0.3-0.1-0.6-0.1-0.8-0.1h-0.1
	c-0.1,0-0.2-0.1-0.3-0.1h-0.1c-0.1,0-0.2,0-0.3-0.1h-0.2h-0.4c-0.1,0-0.1-0.1-0.2-0.1h-0.2h-0.3h-0.1h-0.4c-3,0-5.9,0.8-8.4,2.3
	c-0.1,0.1-0.2,0.1-0.3,0.2c-1,0.6-2,1.4-2.8,2.3c-0.3,0.3-0.6,0.5-0.8,0.8c0,0,0,0.1-0.1,0.1c-0.3,0.4-0.6,0.8-0.8,1.2l-0.1,0.1
	c-0.1,0.2-0.3,0.4-0.4,0.6c-0.1,0.1-0.1,0.2-0.1,0.3c-1,1.5-1.6,3.1-2,4.9c-0.1,0.1-0.1,0.1-0.1,0.1c-0.1,0.6-0.3,1.3-0.3,1.9v0.7
	c-0.1,0.3-0.1,0.6-0.1,0.9c0,0.3,0,0.5,0.1,0.8c0.1,1.2,0.3,2.4,0.6,3.6c0.8,2.7,2.2,5.1,4.2,7.1c3.1,3.1,7.2,4.8,11.5,4.8h0.4
	c0.1,0,0.1,0,0.2-0.1h0.3h0.2h0.2h0.3c0-0.1,0.1-0.1,0.1-0.1h0.3h0.1c0.4-0.1,1-0.2,1.4-0.3c0.1,0,0.1,0,0.1-0.1
	c0.1,0,0.2,0,0.3-0.1h0.2c0.1-0.1,0.1-0.1,0.2-0.1c0.1-0.1,0.2-0.1,0.3-0.1c0.1,0,0.1-0.1,0.1-0.1c0.9-0.3,1.8-0.6,2.6-1h0.1v-8.8
	h-9v-6.7h16.4V32.6z"/>
<polygon class="st1" points="184.4,50.6 164.5,50.6 157.1,50.6 157.1,3 164.5,3 164.5,43.8 184.4,43.8 "/>
<path class="st1" d="M199.9,48.7c-2.9-1.2-5.4-2.9-7.6-5.1s-3.9-4.7-5.1-7.6c-1.2-2.9-1.9-6-1.9-9.2c0-3.2,0.6-6.3,1.9-9.3
	c1.2-2.8,2.9-5.3,5.1-7.6c2.2-2.2,4.7-3.8,7.6-5.1c2.9-1.2,6-1.9,9.2-1.9c3.2,0,6.3,0.6,9.3,1.9c2.8,1.2,5.3,2.9,7.6,5.1
	c2.2,2.2,3.8,4.7,5.1,7.6c1.2,2.9,1.9,6.1,1.9,9.3c0,3.2-0.6,6.3-1.9,9.2c-1.2,2.9-2.9,5.4-5.1,7.6c-2.2,2.2-4.7,3.9-7.6,5.1
	c-2.9,1.2-6.1,1.9-9.3,1.9C205.9,50.6,202.7,49.9,199.9,48.7 M197.6,15.3c-3.1,3.1-4.8,7.2-4.8,11.5c0,4.4,1.7,8.5,4.8,11.5
	c3.1,3.1,7.2,4.8,11.5,4.8c4.4,0,8.5-1.7,11.5-4.8c3.1-3.1,4.8-7.2,4.8-11.5c0-4.4-1.7-8.5-4.8-11.5c-3.1-3.1-7.2-4.8-11.5-4.8
	C204.7,10.5,200.6,12.2,197.6,15.3"/>
<path class="st1" d="M270.7,36.5c0,2.4-0.5,4.5-1.5,6.4c-1,1.8-2.5,3.3-4.4,4.6c-3.3,2.1-7.7,3.1-13.1,3.1h-4.2h-6.3V3h7.4h3.1
	c5.3,0,9.1,1,11.8,2.9c1.5,1.1,2.6,2.5,3.3,4.1c0.6,1.5,1,3.1,1,5c0,2.6-0.8,5.7-3.7,8.7c0.8,0.5,1.5,1.1,2.2,1.7
	c1.4,1.4,2.5,2.9,3.3,4.7C270.4,32.1,270.7,34.2,270.7,36.5 M248.7,9.7v14.4c1.5-0.3,3.2-0.8,4.9-1.5c2.4-1,4.2-2.1,5.5-3.3
	c1.3-1.3,2-2.6,2-4.2c0-2.3-0.8-3.2-1.5-3.7c-1.8-1.3-5.3-1.7-7.8-1.7H248.7z M264.1,36.5c0-2.5-0.8-4.5-2.5-6.1
	c-1-1-2.2-1.7-3.7-2.4c-0.6,0.3-1.3,0.6-2,0.8c-2.6,1.1-5.3,1.7-7.2,2.2v12.8h3.1c4,0,7.3-0.7,9.4-2.1
	C263.2,40.5,264.1,38.8,264.1,36.5"/>
<path class="st1" d="M193.2,22.2c0,0,0-0.1,0.1-0.1c0.4-0.3,0.7-0.7,1-1.1c0.1-0.1,0.2-0.3,0.3-0.4c0.1-0.2,0.1-0.4,0-0.6
	c0-0.1,0-0.2,0-0.3c0-0.1,0.1-0.2,0.1-0.3c-0.3,0.1-0.3,0.5-0.6,0.5c-0.4,0.8-0.7,1.7-1,2.7C193.2,22.5,193.3,22.4,193.2,22.2"/>
<path class="st1" d="M215,12c0,0.1,0,0.3,0.1,0.3c0.2,0.2,0.4,0.4,0.6,0.6c0.1,0.1,0.2,0.2,0.3,0.3c0,0,0,0,0.1,0
	c0-0.1-0.1-0.2-0.1-0.3c0,0,0,0,0.1-0.1c-0.1-0.1-0.1-0.1-0.2-0.2c0.1,0,0.1,0,0.2,0c0-0.1-0.1-0.1-0.1-0.1c0-0.1,0-0.1-0.1-0.2
	c0,0,0-0.1-0.1-0.1c-0.1-0.1-0.3-0.1-0.4-0.2c-0.1,0-0.1-0.1-0.1-0.2c-0.1,0-0.2-0.1-0.3-0.1c0,0,0,0.1,0,0.1
	C215.1,11.8,215.2,11.9,215,12"/>
<path class="st1" d="M214.4,11.4c-1.7-0.6-3.6-0.9-5.5-0.9c-6.2,0-11.6,3.5-14.4,8.6c0,0,0,0,0,0c0,0.1,0,0.1,0.1,0.2
	c0.1,0,0.1,0,0.2-0.1c0.1,0,0.1-0.1,0.2-0.1c0,0,0,0,0,0.1c0,0.1-0.2,0.3,0.1,0.4c0.1,0,0.3,0.2,0.5,0.1c0.2,0,0.3,0,0.5,0
	c0,0.1,0,0.1,0,0.2c0,0.2-0.1,0.3,0.1,0.4c0,0,0,0,0,0.1c-0.1,0.2,0.1,0.4,0.1,0.6c0,0.1,0.1,0.1,0.1,0.1c0,0.1,0.1,0.1,0.1,0.2
	c0,0.1,0.1,0.1,0.1,0.2c0,0.1,0,0.1,0,0.2c0,0.7,0,1.4,0.1,2.1c0,0.2,0.1,0.4,0.1,0.6c0,0.1,0,0.2,0,0.4c0,0.1,0,0.1,0,0.2
	c0,0.1,0.1,0.2,0.2,0.2c0.1,0,0.1-0.1,0.2-0.2c0-0.1,0.1-0.2,0.3-0.2c0.1,0,0.2,0.1,0.2,0.2c0,0.2-0.1,0.4-0.1,0.7
	c0,0.1,0.1,0.2,0.2,0.1c0.2-0.1,0.4-0.3,0.3-0.6c-0.1-0.1-0.1-0.2-0.1-0.3c0-0.1,0-0.2-0.1-0.3c-0.2-0.3-0.1-0.6-0.1-0.9
	c0.1-0.2,0.1-0.4,0.1-0.5c0-0.2,0-0.3,0.1-0.5c0-0.1,0.1-0.1,0.2-0.1c0.1,0,0.4-0.2,0.4-0.3c0,0,0-0.1,0.1-0.1
	c0.3-0.2,0.6-0.5,0.9-0.7c0.1,0,0.1-0.1,0.2-0.1c0.1-0.1,0.3-0.1,0.3-0.3c0-0.2,0.1-0.2,0.2-0.1c0.1,0,0.2,0,0.3,0
	c0.3,0,0.6-0.1,0.8-0.1c0.1,0.2,0.2,0.4,0.3,0.6c0,0.1,0,0.2,0,0.3c0.2,0,0.3,0.2,0.2,0.5c-0.1,0.2-0.1,0.3-0.2,0.5
	c0.2,0.1,0.4,0.1,0.6-0.1c0,0,0,0,0,0c0.1-0.1,0.2-0.1,0.3-0.2c0,0.1,0.1,0.2,0.1,0.4c0,0.2,0,0.4,0.1,0.5c0,0.1,0.1,0.2,0.1,0.2
	c0,0.1,0,0.3,0,0.3c-0.2,0.1-0.1,0.2-0.1,0.4c0,0,0,0.1,0,0.2c0,0,0,0,0,0c0,0.3,0,0.6,0,1c0.1,0,0.2,0,0.2,0
	c0.1,0.1,0.1,0.3,0.2,0.4c0,0,0,0.1,0,0.2c0.1,0,0.1,0,0.2,0c0,0.1,0,0.1,0,0.1c-0.1,0.2,0,0.3,0,0.5c0,0.1,0.1,0.2,0.1,0.2
	c0,0,0.1,0,0.1,0.1c-0.1,0.3,0.2,0.3,0.3,0.4c0.1,0.1,0.2,0.2,0.3,0.3c0,0,0,0,0,0.1c-0.1,0-0.1-0.1-0.2-0.1
	c-0.4-0.2-0.7-0.5-1.1-0.7c-0.2-0.1-0.3-0.2-0.3-0.4c0,0-0.1-0.1-0.1-0.1c-0.2,0-0.4-0.1-0.7-0.1c0,0,0,0.1,0,0.1
	c0.1,0.2,0.2,0.4,0.4,0.5c0.1,0.1,0.2,0.2,0.2,0.4c0,0.1,0.1,0.1,0.1,0.1c0.2,0,0.3,0.1,0.3,0.3c0,0.2,0,0.3,0.2,0.4
	c0.1,0,0.1,0.1,0.1,0.2c0.1,0.3,0.3,0.6,0.4,0.8c0.2,0.2,0.4,0.4,0.6,0.6c0,0,0.1,0.1,0.1,0.1c0.1,0.3,0.3,0.2,0.6,0.2
	c0-0.1,0-0.3,0-0.4c0-0.1,0.1-0.3,0.1-0.4c0,0,0.1,0,0.2-0.1c0,0-0.1-0.1-0.1-0.1c-0.1,0-0.1-0.1-0.1-0.2c0-0.2-0.1-0.2-0.3-0.2
	c-0.1,0.1-0.1,0.2,0.1,0.3c-0.2,0.1-0.2,0-0.3-0.1c-0.1-0.2-0.1-0.4,0.1-0.6c-0.1-0.1-0.1-0.1-0.2-0.2c0,0.2,0.1,0.4-0.2,0.4
	c0-0.2,0-0.3,0-0.5c0.1,0,0.2,0,0.3-0.1c0,0,0,0,0,0c-0.1,0-0.1-0.1-0.1-0.1c0-0.1-0.1-0.2-0.1-0.2c-0.2-0.2-0.3-0.5-0.2-0.7
	c0-0.3,0-0.4-0.3-0.6c-0.1,0-0.1-0.1-0.2-0.2c-0.1-0.1-0.1-0.3-0.3-0.2c0,0-0.1-0.2-0.1-0.3c0-0.1,0-0.3-0.1-0.3c0,0,0-0.1,0-0.1
	c0-0.1,0.1-0.1,0.1-0.2c0,0,0,0,0,0c-0.1,0-0.1,0.1-0.3,0.1c0-0.1,0-0.2,0-0.2c0-0.2,0.1-0.3,0.2-0.5c0-0.1,0.1-0.3,0.1-0.4
	c0-0.2,0.1-0.2,0.3-0.2c0,0.2,0,0.3,0.2,0.2c0,0,0.1,0,0.1,0.1c0.1,0.1,0.1,0.2,0.2,0.2c0,0,0,0.1,0,0.2c0,0.1,0,0.2,0.2,0.2
	c0.4,0.1,0.4,0.2,0.3,0.5c0,0.1,0,0.1,0,0.2c0.1,0,0.1,0,0.2-0.1c0.1-0.1,0.2-0.1,0.4-0.2c0.1,0,0.2-0.1,0.2-0.2
	c0-0.1,0.1-0.2,0.2-0.2c0.6-0.2,0.7-0.3,0.6-1c0-0.4-0.1-0.8-0.5-1c-0.1,0-0.2-0.1-0.2-0.2c-0.1-0.2-0.1-0.4-0.3-0.5
	c0,0,0-0.1,0-0.2c0.1-0.4,0.6-0.8,1-0.7c0.1,0,0.2,0.1,0.2,0.1c0,0.1,0.1,0.3-0.1,0.4c-0.1,0-0.1,0.1-0.2,0.1c0,0.1-0.1,0.1-0.1,0.2
	c0,0.1,0.1,0.1,0.2,0.1c0.3,0,0.5-0.1,0.6-0.4c-0.1-0.1-0.2-0.3-0.1-0.5c0.1-0.1,0.2-0.1,0.3-0.1c0.3,0.1,0.5,0,0.7-0.2
	c0.2-0.2,0.4-0.2,0.7-0.2c0.1,0,0.2,0,0.3-0.1c0.2-0.2,0.4-0.4,0.7-0.5c0.1-0.1,0.3-0.1,0.1-0.3c0,0,0-0.1,0-0.1
	c0.2-0.3,0.4-0.5,0.6-0.8c0,0,0.1-0.1,0.1-0.1c0-0.2,0.1-0.4,0-0.6c0-0.1-0.1-0.2-0.2-0.3c0,0,0.1-0.1,0.1-0.1
	c-0.1-0.1-0.2-0.2-0.3-0.2c-0.2-0.1-0.3-0.1-0.5-0.2c-0.1,0-0.1-0.1-0.2-0.1c0-0.1,0-0.1,0.1-0.2c0.2-0.2,0.4-0.4,0.7-0.3
	c0,0,0.1,0,0.1-0.1c0,0-0.1-0.1-0.1-0.1c-0.1,0-0.3-0.1-0.4-0.1c0,0-0.1,0-0.1,0.1c-0.1,0-0.1,0.1-0.2,0.1c0.2-0.3-0.2-0.3-0.3-0.5
	c0.2-0.2,0.4-0.3,0.7-0.5c0.1,0,0.2,0,0.3,0c-0.1,0.2-0.2,0.3-0.3,0.4c0.1,0.1,0.2,0.1,0.2,0c0.1-0.1,0.2-0.2,0.3-0.2
	c0.1,0,0.2-0.1,0.3,0.1c0,0,0.1,0,0.2,0c-0.1,0.1-0.1,0.2-0.2,0.4c0.2,0.1,0.4,0,0.5,0.2c-0.1,0.1-0.2,0.1,0,0.2c0,0,0,0.2,0,0.3
	c0,0.1,0,0.1,0,0.2c0.1,0,0.2,0.1,0.2,0c0.2,0,0.3-0.1,0.5-0.2c0.1-0.1,0.2-0.2,0.1-0.3c0,0,0,0,0-0.1c0.1-0.3-0.2-0.4-0.4-0.6
	c0,0-0.1-0.1-0.1-0.1c0,0-0.1-0.1-0.1-0.1c0,0,0.1-0.1,0.1-0.1c0.1-0.1,0.2-0.1,0.3-0.2c0.1-0.1,0.1-0.1,0.1-0.2c0,0,0-0.1,0.1-0.1
	c0.1-0.1,0.2-0.1,0.2-0.2c0.1-0.1,0.2-0.2,0.3,0c0,0,0.2,0.1,0.2,0c0.1-0.1,0.3-0.1,0.4-0.2c0.2-0.3,0.5-0.6,0.6-1
	c0-0.1,0-0.3-0.1-0.4c0-0.1-0.1-0.2-0.1-0.2c0.1,0,0.1-0.1,0.1,0c0.1,0,0.1,0.1,0.1,0.2c0.1,0.1,0.1,0.3,0.2,0.4
	c0.1,0.2,0.2,0.4,0.2,0.5c0.2,0,0.3,0,0.4,0c-0.1-0.1-0.2-0.1-0.2-0.1c-0.1-0.1-0.2-0.1-0.2-0.2c0-0.1-0.1-0.2-0.1-0.3
	c0,0,0.1-0.1,0.2-0.1c-0.1-0.1-0.3-0.3-0.4-0.5c-0.1-0.2-0.3-0.3-0.4-0.5c-0.1,0.2-0.2,0.2-0.3,0.1c-0.1-0.1-0.3-0.2-0.4,0
	c0,0-0.2,0-0.2,0c-0.1-0.1-0.2-0.1-0.3-0.2c0,0,0-0.1,0.1-0.1c0.2-0.1,0.4-0.3,0.5-0.5c0.1-0.1,0.1-0.1,0.2-0.1c0.4,0,0.9-0.1,1.3,0
	c0.1,0,0.2,0,0.3,0c-0.1,0-0.1-0.1-0.2-0.1C214.3,11.5,214.3,11.4,214.4,11.4"/>
<path class="st1" d="M218.6,40c-0.1,0.1-0.3,0.2-0.4,0.3c0,0,0,0,0,0c0.5-0.4,1-0.8,1.5-1.2C219.3,39.4,219,39.7,218.6,40"/>
<path class="st1" d="M221.1,37.4C221.1,37.4,221.1,37.4,221.1,37.4c-0.1,0.2-0.2,0.3-0.2,0.5c0,0,0,0,0,0.1c0.1-0.1,0.2-0.2,0.3-0.3
	C221.2,37.6,221.2,37.5,221.1,37.4"/>
<path class="st1" d="M218.4,35.4c0.1,0,0.1-0.1,0.2-0.2c-0.2,0.7-0.4,1.3-0.8,1.9c-0.4,0.5-0.8,0.9-1.1,1.4
	c-0.1,0.1-0.2,0.2-0.3,0.2c-0.2,0-0.4,0.1-0.5,0.2c-0.1,0.1-0.2,0.2-0.4,0.1c-0.1,0-0.2,0-0.3,0c-0.1,0-0.2,0-0.3,0
	c-0.1,0-0.2,0-0.3,0c-0.2,0-0.3-0.1-0.2-0.3c0-0.1,0-0.2,0-0.2c-0.1,0-0.2-0.1-0.3-0.1c-0.1,0-0.2,0.1-0.3,0.1c0,0,0,0-0.1,0
	c0.2-0.2,0.3-0.5,0.5-0.7c0,0,0,0,0,0c-0.2,0.1-0.4,0.2-0.6,0.5c-0.1-0.2-0.1-0.3-0.2-0.4c-0.1-0.2-0.2-0.3-0.4-0.4
	c-0.2,0-0.4-0.1-0.6-0.1c-0.3,0-0.5,0.1-0.7,0.2c-0.1,0-0.2,0.1-0.3,0.1c-0.4-0.1-0.6,0.1-0.9,0.3c-0.1,0.1-0.1,0.1-0.2,0.1
	c-0.1,0-0.2,0-0.4,0c-0.2,0-0.5,0-0.7,0.1c-0.3,0.2-0.8,0.1-1-0.1c0.2-0.2,0.2-0.5,0.1-0.8c-0.1-0.1-0.1-0.2-0.1-0.4
	c0-0.1-0.1-0.2-0.1-0.2c-0.1-0.1-0.2-0.2-0.2-0.4c0-0.1-0.1-0.2-0.2-0.2c-0.1-0.1-0.2-0.2-0.2-0.4c0.1,0.1,0.3,0.2,0.4,0.3
	c0,0,0,0,0,0c-0.1-0.1-0.2-0.3-0.2-0.4c-0.1-0.1-0.1-0.2,0-0.3c0-0.1,0-0.2,0-0.3c0-0.1,0-0.2,0.1-0.3c0,0.1,0,0.1,0,0.2
	c0.2-0.2,0.5-0.4,0.7-0.5c0.1-0.1,0.3,0,0.5-0.1c0.1,0,0.2,0,0.2-0.1c0,0,0.2,0,0.2,0c0.3,0,0.7-0.3,0.8-0.5c0,0,0-0.1,0-0.1
	c0-0.2,0.1-0.3,0.2-0.3c0.1,0.1,0.2,0.1,0.3,0.1c0-0.1,0-0.2,0-0.3c0.1,0,0.2,0,0.3,0.1c0-0.1,0-0.1,0-0.2c0-0.1,0-0.2,0.1-0.2
	c0,0,0.1-0.1,0.1-0.2c0.1,0,0.2,0,0.4-0.1c0.1-0.1,0.4,0,0.5,0.1c0,0,0.1,0.1,0.1,0.1c0.2,0,0.4-0.1,0.5-0.2
	c0.1-0.2,0.2-0.4,0.4-0.6c0,0-0.1,0-0.1,0c-0.1,0-0.1-0.1-0.1-0.1c0.1,0,0.1-0.1,0.2-0.1c0.1,0,0.2,0,0.3,0c0,0.1,0,0.1-0.1,0.2
	c0,0,0,0,0,0c0.1-0.1,0.1-0.2,0.2-0.3c0.1,0,0.2-0.1,0.3,0.1c0.1,0.2,0.7,0.2,0.8,0.1c0.1-0.1,0.2-0.2,0.3-0.2c0,0.2,0,0.3,0,0.4
	c0,0,0,0,0.1,0c-0.1,0.1-0.1,0.2-0.2,0.3c0.1,0,0.1,0,0.2,0v0.2c-0.1,0-0.2,0.1-0.2-0.1c-0.2,0.1-0.2,0.2-0.2,0.3
	c0,0,0.2,0.2,0.2,0.2c0.1,0,0.2,0.1,0.3,0.1c0.3,0.3,0.3,0.3,0.6,0.1c0,0,0.1,0,0.2,0c0,0,0,0,0,0.1c-0.1,0-0.2,0.1-0.3,0.2
	c0.1,0.1,0.2,0.2,0.3,0.1c0.1,0,0.2-0.1,0.2-0.2c0.2-0.3,0.2-0.7,0.3-1.1c0-0.1,0.1-0.3,0.1-0.4c0.2-0.3,0-0.6-0.1-0.8
	c0-0.1-0.1-0.2-0.2-0.2c-0.2-0.3-0.2-0.3-0.5-0.2c-0.2,0-0.3,0-0.5,0c0,0-0.1-0.1-0.1-0.1c0.1,0,0.1-0.1,0.2-0.1c0,0,0.1,0,0.1,0
	c0.2,0,0.3-0.2,0.3-0.4c-0.1-0.2-0.2-0.4-0.5-0.5c-0.2,0-0.3-0.1-0.5-0.2c-0.2-0.1-0.3-0.2-0.4-0.2c-0.1,0.1-0.2,0.1-0.3,0.1
	c0,0,0,0,0,0c0.2-0.3-0.1-0.3-0.3-0.4c0.1-0.2,0.3,0.1,0.3-0.1c-0.1-0.1-0.2-0.2-0.3-0.2c0,0-0.1,0-0.1,0c-0.2,0-0.3-0.1-0.4-0.3
	c0.2,0,0.4,0,0.6-0.1c0,0,0.2,0,0.2,0c0.1,0,0.2,0.1,0.4,0.2c0,0.1,0,0.2,0,0.3c0,0.1,0,0.2,0.2,0.2c0,0,0.1,0.1,0.1,0.1
	c0,0.1,0.1,0.1,0.1,0.3c0.1-0.1,0.2-0.2,0.3-0.3c0.1-0.1,0.1-0.1,0.2-0.1c0,0,0.1-0.1,0.1-0.1c0.1-0.2,0.2-0.1,0.3-0.1
	c0.1,0,0.2,0.1,0.3,0.1c0.1,0,0.1,0.1,0.2,0.1c0.4,0.1,0.7,0.2,1.1,0.3c0.2,0.1,0.3,0.2,0.5,0.3c0,0,0.1,0.1,0.1,0.1
	c0,0.3,0.2,0.3,0.4,0.3c0.1,0,0.3,0.1,0.2,0.3h-0.3c0.2,0.3,0.3,0.5,0.5,0.7c0,0,0.1,0,0.2,0c0,0.1,0,0.1,0,0.2
	c0.2,0.1,0.3,0.2,0.5,0.3c-0.2,0-0.3,0.2-0.5-0.1c0,0-0.1,0-0.1,0c-0.3,0-0.5-0.1-0.6-0.4c0-0.1-0.1-0.3-0.3-0.3
	c-0.3-0.1-0.3-0.1-0.5,0.3c-0.2,0.4-0.2,0.4-0.4,0.5c0.3,0.2,0.1,0.5,0.2,0.8c0.1,0.2,0.1,0.3,0.3,0.5c0.1,0,0.1,0.2,0.1,0.3
	c0,0.2,0,0.4,0.1,0.6c0.1,0.1,0,0.3,0.1,0.4c0,0.1,0.1,0.1,0.1,0.2c0.1,0.1,0.2,0.2,0.3,0.3c0.2,0.3,0.4,0.6,0.5,0.9
	C218.3,35.1,218.4,35.3,218.4,35.4"/>
<path class="st1" d="M206.1,28.3c-0.1,0-0.1,0-0.2,0c-0.1-0.1-0.1-0.3-0.2-0.4c0.1-0.1,0.1-0.2,0-0.3c-0.1-0.1,0-0.3,0.2-0.4
	c0.1,0.2,0.2,0.1,0.4,0.1c0.1,0,0.1-0.1,0.1-0.2c0-0.1,0-0.2,0.2-0.2c0.3,0,0.5-0.1,0.7-0.4c0-0.1,0.1-0.1,0.1-0.2
	c0.1,0,0.3-0.1,0.4-0.1c0,0,0-0.1-0.1-0.1c0.1,0,0.2,0,0.2,0c0-0.2,0.3-0.6,0.4-0.6c0.1,0.2,0.2,0.3,0.3,0.5
	c0.1,0.1,0.3,0.2,0.4,0.2c0,0,0,0,0.1,0.1c-0.2,0-0.3,0-0.5,0c0.1,0.1,0.2,0.1,0.2,0.2c0,0,0,0,0,0c-0.1,0-0.3,0-0.3,0.2
	c0,0.1-0.1,0.3,0.1,0.4c0,0,0,0,0,0c0,0.2,0.2,0.3,0.3,0.5c0,0,0,0,0,0.1c-0.1,0-0.1,0-0.2,0c-0.2,0-0.3,0.1-0.3,0.2
	c0,0,0,0.1,0,0.1c0.2,0.1,0.1,0.2,0,0.3c-0.1,0.1-0.2,0.1-0.3,0.2c0,0.1,0,0.3-0.1,0.4c0,0.1,0,0.3,0,0.4c0,0,0,0-0.1,0
	c0,0-0.1-0.1-0.1-0.1c-0.1,0.1-0.2,0.1-0.4,0.2c0-0.2-0.1-0.2-0.3-0.3c-0.1,0-0.2-0.1-0.2-0.1c-0.1,0.1-0.3,0.1-0.4,0.2
	c0-0.1,0-0.2,0-0.2c-0.1,0-0.2,0-0.3,0c-0.2,0-0.2,0-0.2-0.2C206.2,28.5,206.1,28.4,206.1,28.3"/>
<path class="st1" d="M213.4,17c-0.1,0.3-0.4,0.3-0.5,0.5c-0.2-0.1-0.2-0.1-0.1-0.3c-0.2,0-0.3,0-0.5,0c0.1,0.1,0.3,0.2,0.3,0.2
	c0,0.2,0,0.3-0.1,0.5c0,0-0.1,0.1-0.2,0.1c-0.1,0-0.1-0.1-0.1-0.1c0-0.1-0.2-0.4-0.2-0.4c0.3-0.2,0.5-0.4,0.8-0.6
	c0.1-0.1,0.3,0,0.5,0c0.3,0,0.4-0.1,0.4-0.4c0-0.1,0-0.1,0-0.2c0,0,0,0,0.1,0c0,0.1,0,0.1,0.1,0.2c0.4-0.1,0.6-0.4,0.4-0.8
	c-0.1-0.2,0-0.3,0.2-0.3c0.1,0.1,0.2,0.2,0.3,0.4c0,0.1,0,0.2,0,0.2c-0.1,0.1-0.1,0.2,0,0.4c0.1,0.2,0,0.5-0.1,0.7
	c0-0.1,0-0.2-0.1-0.3c-0.1,0.1-0.1,0.2-0.2,0.3c0,0-0.1-0.1-0.1-0.1c-0.2,0.1-0.3,0.1-0.5,0c0,0,0.1,0.1,0.1,0.1
	c-0.1,0.1-0.1,0.2-0.2,0.3C213.4,17.3,213.4,17.2,213.4,17"/>
<path class="st1" d="M210.7,28.5c-0.1,0-0.2,0-0.3,0c0,0,0-0.1-0.1-0.2c-0.1,0-0.1,0.1-0.2,0.1c-0.1,0.1-0.1,0.2,0,0.3
	c0.1,0.1,0.2,0.2,0.1,0.3c0,0.1,0.1,0.2,0.2,0.2c0.1,0,0.1,0.1,0.1,0.2c0,0.1,0,0.2-0.1,0.3c0,0.1-0.2,0.1-0.3,0c0,0,0-0.1,0-0.1
	c0,0,0.1-0.1,0.1-0.1c-0.1,0-0.2,0.1-0.4,0.1c0-0.1,0-0.2,0.1-0.3c-0.1,0-0.2-0.1-0.2-0.1c0-0.1,0.1-0.1,0.1-0.2
	c0-0.1-0.1-0.1-0.1-0.2c0,0-0.1,0.1-0.1,0.1c0,0.2,0,0.3,0,0.5c0,0.1,0,0.1,0,0.2c0,0.1,0,0.2-0.1,0.2c-0.1,0-0.2,0-0.3,0
	c0,0,0-0.1,0-0.1c0.1-0.3,0.1-0.3,0-0.5c-0.1,0-0.1,0-0.2,0c0-0.1-0.1-0.3,0.1-0.3c0,0,0.1-0.1,0-0.1c0-0.2,0-0.3,0.1-0.5
	c0-0.1,0-0.2,0-0.3c0-0.1,0-0.2,0.2-0.2c0.1,0,0.1-0.1,0.2-0.1c0.3,0,0.6,0.1,0.9,0.1c0.2,0,0.3,0,0.4-0.2c0,0,0.1-0.1,0.2-0.1
	c0,0.1,0,0.2,0,0.2c-0.1,0.2-0.4,0.2-0.6,0.2c-0.3,0-0.6,0-0.9,0c0,0-0.1,0.1-0.1,0.2c0,0.1,0,0.2,0,0.2c0,0.1,0.1,0.1,0.2,0.2
	c0.1-0.1,0.1-0.2,0.2-0.3c0,0,0,0.1,0,0.1c0.1,0,0.3,0,0.4-0.1c0.2-0.1,0.2-0.1,0.2,0.1C210.6,28.3,210.6,28.4,210.7,28.5"/>
<path class="st1" d="M208,30.7c-0.1,0-0.2,0-0.3-0.1c0,0,0,0,0,0.1c-0.3-0.2-0.7-0.2-1.1-0.2c-0.1,0-0.2,0-0.2,0
	c-0.2-0.1-0.4-0.1-0.6-0.1c-0.1,0-0.2,0-0.3-0.1c-0.1,0-0.2,0-0.3-0.1c-0.1-0.1-0.1-0.1-0.2-0.1c-0.1,0-0.2,0-0.3,0
	c0.1-0.1,0.2-0.1,0.2-0.2c0-0.2,0.1-0.2,0.2-0.1c0.1,0,0.2,0,0.2,0c0.2,0,0.4,0,0.5,0.2c0,0.1,0.2,0,0.3,0.1c0.1,0,0.2,0,0.3,0
	c0-0.1,0-0.1,0.1-0.2c0.3,0.3,0.8,0.1,1.2,0.2l0,0.1c-0.2,0-0.3,0-0.5,0.1c0,0.1,0.1,0.2,0.2,0.2c0.1,0,0.2,0,0.2,0c0,0,0.1,0,0.1,0
	c0,0.2,0.2,0.1,0.3,0.1C208,30.6,208.1,30.6,208,30.7L208,30.7z"/>
<path class="st1" d="M210.5,23.9c0-0.1,0.1-0.1,0.2-0.2c-0.1-0.1-0.2-0.3-0.3-0.4c0,0.1,0,0.2,0,0.2c-0.1-0.1-0.1-0.1-0.2-0.1
	c-0.1,0-0.1-0.1-0.2,0c-0.2,0.1-0.2,0-0.3-0.1c0,0,0-0.1,0-0.1c-0.2-0.2-0.2-0.4-0.2-0.6c0.1,0,0.1,0,0.2,0.1c0-0.3,0-0.5,0.1-0.8
	c0.1,0,0.2,0,0.3,0c0.1,0,0.2,0.1,0.3,0c-0.1,0.2-0.1,0.4,0.1,0.5c0,0.1-0.1,0.1-0.1,0.2c0,0,0,0.1,0,0.1c0,0-0.1,0.1-0.1,0.1
	c0,0.2,0,0.3,0,0.5c0,0,0.1,0,0.2,0c0.1,0,0.1-0.1,0.1-0.1c0.3,0.1,0.3,0.3,0.4,0.4c0,0.1,0,0.3,0,0.4
	C210.6,23.9,210.6,23.9,210.5,23.9"/>
<path class="st1" d="M211.5,25.8c0-0.1-0.1-0.2-0.1-0.3c0,0,0,0,0,0c0,0.2,0,0.3-0.1,0.5c-0.1,0-0.2-0.1-0.2-0.1
	c-0.2-0.1-0.3-0.2-0.2-0.5c0,0-0.1-0.1-0.1-0.2c-0.1,0-0.1,0.1-0.1,0.1c0,0-0.1,0-0.2,0.1c0,0,0-0.1,0-0.1c-0.3,0-0.1,0.3-0.3,0.4
	c0-0.2,0-0.4,0.1-0.6c0.1-0.1,0.2-0.2,0.4-0.2c0,0,0.1,0.1,0.2,0.2c0.1-0.1,0.2-0.2,0.3-0.3c0,0,0.1,0,0.1,0c0-0.1,0-0.3,0-0.4
	C211.5,24.9,211.7,25.3,211.5,25.8C211.5,25.8,211.5,25.8,211.5,25.8"/>
<path class="st1" d="M217.9,29.4c0.3,0,0.6,0.2,0.8-0.1c0.1,0.1,0.2,0.2,0.3,0c0,0,0.1,0,0.1-0.1c0-0.1,0-0.1,0-0.2h0.3
	c-0.2-0.3-0.4-0.4-0.7-0.5c0.4,0,0.6,0.2,0.8,0.4c0.1,0.1,0.1,0.2,0.1,0.3c-0.1,0-0.2,0-0.2,0.1c-0.1,0.3-0.4,0.3-0.6,0.5
	c-0.1,0.1-0.2,0-0.3,0C218.3,29.6,218.1,29.5,217.9,29.4"/>
<path class="st1" d="M214.1,15c0.1,0.1,0.1,0.1,0.2,0.2c-0.1,0-0.1,0.1-0.2,0.1c0,0,0-0.1-0.1-0.1c-0.1-0.2-0.1-0.2,0.1-0.3
	c0,0,0.1-0.1,0.1-0.1c0-0.1-0.1-0.3-0.1-0.4c0.3,0.1,0.6,0.2,0.9,0.3l0,0c0,0.1,0.1,0.2,0.1,0.3c-0.1,0-0.3,0-0.3,0.2
	c-0.1,0-0.1,0-0.2,0C214.4,15,214.3,14.9,214.1,15"/>
<path class="st1" d="M215,39.2C215.1,39.3,215.1,39.3,215,39.2c0.3,0.3,0.5,0.3,0.7,0.2c0,0,0-0.1,0.1-0.1c0,0,0.1-0.1,0.1-0.1
	c0,0,0,0.1,0,0.1c-0.1,0.2-0.2,0.4-0.3,0.6c-0.1,0.1-0.3,0.2-0.5,0.2c0,0-0.1,0-0.1-0.1c0-0.1,0-0.2,0-0.2c0-0.2,0-0.3,0-0.5
	C215,39.3,215,39.3,215,39.2"/>
<path class="st1" d="M210.1,24.4c0-0.1,0-0.3,0-0.4c0.1-0.1,0.2,0.1,0.4,0.1c0,0.1,0.1,0.2,0.1,0.4c0.1-0.1,0.1-0.2,0.2-0.3
	c0,0,0,0,0,0c0,0.1,0,0.1,0,0.2c0,0.1-0.1,0.2-0.1,0.3c-0.1,0.2-0.2,0.2-0.4,0c0-0.1,0.1-0.2,0.1-0.3
	C210.3,24.4,210.2,24.4,210.1,24.4"/>
<path class="st1" d="M209.7,20.7c-0.2-0.1-0.3-0.4-0.2-0.5c0.1-0.2,0.2-0.3,0.3-0.4c0,0,0.1,0,0.2,0c0,0.1,0,0.1,0,0.2
	c-0.1,0.2-0.1,0.5-0.3,0.7C209.7,20.6,209.7,20.6,209.7,20.7"/>
<path class="st1" d="M209.2,30.7c0.2-0.1,0.4-0.1,0.6-0.1c0.2,0,0.4,0.1,0.5-0.1c0,0,0,0,0,0c0.2,0,0.5,0,0.7,0
	C210.7,30.8,209.5,30.9,209.2,30.7"/>
<path class="st1" d="M211.8,30.6c-0.5,0.3-1,0.5-1.5,0.8c0,0,0-0.1,0-0.1c0.1-0.1,0.2-0.2,0.3-0.3c0.1-0.1,0.1-0.1,0.2-0.2
	c0.1-0.1,0.2,0,0.3-0.2c0,0,0,0,0.1,0C211.4,30.6,211.6,30.6,211.8,30.6L211.8,30.6z"/>
<path class="st1" d="M212.3,27.3c0,0.1-0.2,0.3,0,0.4h-0.3c0,0.1,0,0.3,0.1,0.4c-0.1,0-0.2,0-0.3,0c0.3-0.2,0.1-0.5,0.1-0.7
	c0-0.2,0.2-0.3,0.4-0.4c0,0.1-0.3,0.2-0.2,0.4C212.2,27.4,212.3,27.4,212.3,27.3"/>
<path class="st1" d="M208,30.7c0,0,0.1,0,0.1-0.1c0.1-0.2,0.2-0.1,0.3-0.1c0,0,0.1,0,0.1,0c0.2-0.2,0.4,0,0.5-0.1c0,0,0.1,0,0.1,0.1
	c0,0-0.1,0.1-0.1,0.1c-0.2,0-0.4,0.2-0.7,0.1C208.3,30.8,208.1,30.8,208,30.7L208,30.7z"/>
<path class="st1" d="M213,29.1c-0.1,0-0.1,0-0.2-0.1c-0.2-0.1-0.4-0.1-0.6,0c0,0-0.1,0-0.1,0c0-0.1-0.1-0.1-0.1-0.2
	c0,0,0.1-0.1,0.1-0.1c0.2,0,0.4,0,0.7,0C212.9,28.8,213,28.9,213,29.1"/>
<path class="st1" d="M209.4,23.8c0,0,0.1,0,0.1,0c-0.1,0.1-0.3,0.3-0.2,0.5c-0.3,0.3-0.6,0.6-0.9,0.9c0-0.1,0-0.1,0.1-0.2
	c0.1-0.1,0.2-0.3,0.4-0.4C209.1,24.4,209.3,24.2,209.4,23.8"/>
<path class="st1" d="M210.9,23.7c0.3,0,0.3,0,0.3,0.2c0,0,0,0.1,0,0.1c0,0,0,0.1,0,0.1c-0.1,0.1-0.1,0.1-0.1,0.2c0,0.1,0,0.1,0,0.2
	c-0.1-0.1-0.2-0.2-0.2-0.3c0-0.1,0-0.2,0-0.2c0,0,0,0,0.1,0c0,0,0.1,0.1,0.1,0.2C211.1,23.9,210.9,23.8,210.9,23.7"/>
<path class="st1" d="M221.2,33.6c0.4,0.2,0.3,0.6,0.6,0.9C221.4,34.4,221.3,34.2,221.2,33.6"/>
<path class="st1" d="M214.3,29.9c0,0.1-0.1,0.2-0.1,0.3c0,0-0.1,0-0.2-0.1c0-0.1,0-0.2,0-0.3c0-0.1,0-0.1,0.1-0.2
	c0,0,0.1-0.1,0.1-0.1c0,0,0.1,0.1,0.1,0.1C214.3,29.7,214.3,29.8,214.3,29.9C214.3,29.9,214.3,29.9,214.3,29.9"/>
<path class="st1" d="M222.5,32.4c0,0.2-0.1,0.3-0.1,0.4c-0.2-0.2-0.1-0.4-0.2-0.6c0.1,0,0.1,0,0.1-0.1
	C222.3,32.2,222.4,32.3,222.5,32.4"/>
<path class="st1" d="M211.4,28.7C211.4,28.7,211.4,28.6,211.4,28.7c-0.1-0.2-0.2-0.2-0.4-0.1c0,0-0.1,0-0.2,0c0,0,0-0.1,0-0.1
	c0,0,0-0.1,0.1-0.1c0.2,0,0.5,0,0.7,0C211.5,28.5,211.3,28.5,211.4,28.7C211.5,28.7,211.5,28.7,211.4,28.7"/>
<path class="st1" d="M213.4,30.2c-0.1,0.1-0.3,0.3-0.4,0.4c0,0,0,0,0,0l0-0.3l0.1,0.1c0.1-0.1,0.1-0.1,0.2-0.2l-0.1-0.1
	C213.2,30.1,213.3,30.1,213.4,30.2"/>
<path class="st1" d="M220.2,29.9c-0.2-0.1-0.3-0.2-0.3-0.6C220,29.5,220.3,29.6,220.2,29.9"/>
<path class="st1" d="M209.7,31.2c-0.1,0.1-0.2,0.1-0.3,0c0-0.1-0.1-0.1-0.2-0.1c-0.1,0-0.1,0-0.2-0.1
	C209.3,30.8,209.6,30.9,209.7,31.2"/>
<path class="st1" d="M209.6,23.4c0.3,0,0.4,0.1,0.3,0.4c0,0,0,0.1-0.1,0.1c0,0-0.1-0.1-0.1-0.1C209.7,23.6,209.6,23.5,209.6,23.4"/>
<path class="st1" d="M220.7,30.4c-0.1,0-0.1,0-0.2,0c-0.1-0.1-0.1-0.3-0.2-0.4c0,0,0,0,0,0C220.5,30.1,220.6,30.2,220.7,30.4
	C220.7,30.4,220.7,30.4,220.7,30.4"/>
<path class="st1" d="M201,24c-0.1-0.1,0-0.6,0.2-0.8C201.1,23.5,201,23.8,201,24"/>
<path class="st1" d="M211.4,28.9c0.1,0,0.3,0,0.4,0c0,0,0.1,0,0.1,0.1c0,0,0,0.1,0,0.1C211.7,29.2,211.5,29.1,211.4,28.9"/>
<path class="st1" d="M219.7,31.3c-0.1,0-0.2,0-0.3,0c-0.1,0-0.2-0.1-0.2-0.2c0,0,0-0.1,0.1-0.2C219.3,31.3,219.5,31.3,219.7,31.3
	L219.7,31.3z"/>
<path class="st1" d="M221.3,30.7c-0.2,0-0.2,0-0.4-0.3C221,30.4,221.2,30.6,221.3,30.7"/>
<path class="st1" d="M223.9,32.6c0.1,0.1,0.1,0.3,0,0.3c0,0-0.2,0-0.2,0C223.7,32.8,223.7,32.7,223.9,32.6"/>
<path class="st1" d="M214.8,28.3c-0.2,0-0.4,0-0.4-0.2C214.7,28,214.8,28,214.8,28.3"/>
<path class="st1" d="M213,28.1c-0.1,0-0.1-0.1-0.1-0.1c0,0,0.1-0.1,0.1-0.1c0.1,0,0.1,0.1,0.2,0.1C213.1,28,213.1,28,213,28.1"/>
<path class="st1" d="M221.3,30.2c0,0.2,0.1,0.3,0.1,0.5c0,0,0,0-0.1,0C221.3,30.6,221.3,30.4,221.3,30.2
	C221.3,30.2,221.3,30.2,221.3,30.2"/>
<path class="st1" d="M221.1,30.3c-0.3-0.2-0.5-0.3-0.8-0.5c0,0,0,0,0-0.1C220.6,29.9,220.9,30.1,221.1,30.3
	C221.1,30.2,221.1,30.3,221.1,30.3"/>
<path class="st1" d="M205.3,28.8c0.1,0,0.2,0,0.3,0c0,0.1,0,0.1,0,0.2C205.5,28.9,205.4,28.9,205.3,28.8
	C205.3,28.8,205.3,28.8,205.3,28.8"/>
<path class="st1" d="M213.4,29.6c0.1,0,0.2,0,0.4-0.1c0,0.1-0.1,0.2-0.2,0.2C213.5,29.8,213.4,29.8,213.4,29.6"/>
<path class="st1" d="M202.2,27.6c-0.1-0.1-0.1-0.2-0.2-0.4C202.3,27.3,202.4,27.4,202.2,27.6C202.3,27.6,202.3,27.6,202.2,27.6"/>
<path class="st1" d="M218.6,30.6c0.3,0.1,0.3,0.1,0.3,0.4C218.8,30.9,218.7,30.8,218.6,30.6"/>
<path class="st1" d="M211.7,30.3c-0.2,0.1-0.3,0.2-0.5,0.2C211.3,30.3,211.3,30.3,211.7,30.3"/>
<path class="st1" d="M202.6,28.1c0,0.1,0.1,0.2,0.2,0.3C202.6,28.4,202.5,28.3,202.6,28.1L202.6,28.1z"/>
<path class="st1" d="M212.1,28.4c-0.2,0-0.3,0-0.3-0.2C212,28.2,212.1,28.3,212.1,28.4"/>
<path class="st1" d="M214.9,28.3c-0.1,0.2-0.3,0.1-0.4,0H214.9z"/>
<path class="st1" d="M224.2,32.2c0,0.2,0,0.3-0.2,0.3C224,32.4,224.1,32.3,224.2,32.2"/>
<path class="st1" d="M222.4,33.2v0.5c0,0,0,0,0,0L222.4,33.2C222.4,33.2,222.4,33.2,222.4,33.2"/>
<path class="st1" d="M217.8,28.5c0.2-0.1,0.3-0.1,0.4,0.1C218,28.5,217.9,28.5,217.8,28.5"/>
<path class="st1" d="M212.3,30.6h-0.4c0,0,0-0.1,0-0.1c0.1,0,0.1,0,0.2,0C212.2,30.5,212.3,30.5,212.3,30.6
	C212.3,30.5,212.3,30.6,212.3,30.6"/>
<path class="st1" d="M221.3,30.8c0.1,0,0.2,0.1,0.2,0.1C221.4,31.1,221.4,30.9,221.3,30.8C221.3,30.8,221.3,30.8,221.3,30.8"/>
<path class="st1" d="M203.1,28.9c-0.1-0.1-0.2-0.3-0.3-0.4c0,0,0,0,0,0C202.9,28.6,203,28.7,203.1,28.9
	C203.1,28.9,203.1,28.9,203.1,28.9"/>
<path class="st1" d="M201.9,27.1c-0.1-0.1-0.1-0.2-0.2-0.3C201.9,26.8,201.9,26.9,201.9,27.1C201.9,27.1,201.9,27.1,201.9,27.1"/>
<polygon class="st1" points="286.4,22.4 303.8,22.4 303.8,29.1 286.4,29.1 286.4,43.8 307.5,43.8 307.5,50.6 286.3,50.6 278.9,50.6 
	278.9,3 286.3,3 307.5,3 307.5,9.7 286.4,9.7 "/>
<rect x="221.9" y="58.9" class="st1" width="1.3" height="8.3"/>
<polygon class="st1" points="226.2,61.9 226.2,67.2 224.9,67.2 224.9,58.5 230.1,64.2 230.1,58.9 231.4,58.9 231.4,67.6 "/>
<polygon class="st1" points="238.5,60.1 236.2,60.1 236.2,67.2 234.9,67.2 234.9,60.1 232.6,60.1 232.6,58.9 238.5,58.9 "/>
<polygon class="st1" points="241,62.3 244,62.3 244,63.5 241,63.5 241,66 244.6,66 244.6,67.2 241,67.2 239.7,67.2 239.7,58.9 
	241,58.9 244.6,58.9 244.6,60.1 241,60.1 "/>
<path class="st1" d="M252,67.2h-1.5l-2.1-2.8h-0.9v2.8h-1.3v-8.3h1.1h1.4c1.1,0,1.7,0.4,2.1,0.8c0.4,0.5,0.7,1.2,0.7,1.9
	c0,0.8-0.2,1.4-0.7,1.9c-0.2,0.2-0.5,0.5-1,0.6L252,67.2z M248.6,63.2c0.5,0,0.9-0.2,1.2-0.4c0.3-0.3,0.4-0.8,0.4-1.1
	c0-0.3-0.1-0.8-0.4-1.1c-0.3-0.3-0.7-0.4-1.2-0.4h-1.2v3.1H248.6z"/>
<polygon class="st1" points="254.3,61.9 254.3,67.2 253,67.2 253,58.5 258.2,64.2 258.2,58.9 259.5,58.9 259.5,67.6 "/>
<path class="st1" d="M265.7,65.4h-2.9l-0.7,1.8h-1.4l3.6-8.7l3.6,8.7h-1.4L265.7,65.4z M265.2,64.3l-1-2.5l-1,2.5H265.2z"/>
<polygon class="st1" points="273.2,60.1 270.9,60.1 270.9,67.2 269.6,67.2 269.6,60.1 267.3,60.1 267.3,58.9 273.2,58.9 "/>
<rect x="274.4" y="58.9" class="st1" width="1.3" height="8.3"/>
<path class="st1" d="M279.7,66.9c-0.5-0.2-0.9-0.5-1.3-0.9c-0.4-0.4-0.7-0.8-0.9-1.3c-0.2-0.5-0.3-1.1-0.3-1.6
	c0-0.6,0.1-1.1,0.3-1.6c0.2-0.5,0.5-0.9,0.9-1.3c0.4-0.4,0.8-0.7,1.3-0.9c0.5-0.2,1.1-0.3,1.6-0.3c0.6,0,1.1,0.1,1.6,0.3
	c0.5,0.2,0.9,0.5,1.3,0.9c0.4,0.4,0.7,0.8,0.9,1.3c0.2,0.5,0.3,1.1,0.3,1.6c0,0.6-0.1,1.1-0.3,1.6c-0.2,0.5-0.5,0.9-0.9,1.3
	c-0.4,0.4-0.8,0.7-1.3,0.9c-0.5,0.2-1.1,0.3-1.6,0.3C280.7,67.2,280.2,67.1,279.7,66.9 M279.3,61.1c-0.5,0.5-0.8,1.3-0.8,2
	c0,0.8,0.3,1.5,0.8,2c0.5,0.5,1.3,0.8,2,0.8c0.8,0,1.5-0.3,2-0.8c0.5-0.5,0.8-1.3,0.8-2c0-0.8-0.3-1.5-0.8-2c-0.5-0.5-1.3-0.8-2-0.8
	C280.5,60.2,279.8,60.5,279.3,61.1"/>
<polygon class="st1" points="288.2,61.9 288.2,67.2 286.9,67.2 286.9,58.5 292.1,64.2 292.1,58.9 293.4,58.9 293.4,67.6 "/>
<path class="st1" d="M299.6,65.4h-2.9l-0.7,1.8h-1.4l3.6-8.7l3.6,8.7h-1.4L299.6,65.4z M299.1,64.3l-1-2.5l-1,2.5H299.1z"/>
<polygon class="st1" points="307.5,67.2 304.1,67.2 302.8,67.2 302.8,58.9 304.1,58.9 304.1,66 307.5,66 "/>
<path class="st2" d="M234.3,42.9c0,0-77.9,65.2-228.8,7.6C5.5,50.6,142.6,119.9,234.3,42.9"/>
<path class="st3" d="M224.8,49.4c0,0,8.5-4.4,10.7-10.8l-2.7,13.3c0,0-2.3-5.4-8-1.5"/>
</svg>
