<?xml version="1.0" encoding="utf-8"?>
<!-- Generator: Adobe Illustrator 22.1.0, SVG Export Plug-In . SVG Version: 6.00 Build 0)  -->
<svg version="1.1" id="Layer_1" xmlns="http://www.w3.org/2000/svg" xmlns:xlink="http://www.w3.org/1999/xlink" x="0px" y="0px"
	 viewBox="0 0 512 512" style="enable-background:new 0 0 512 512;" xml:space="preserve">
<style type="text/css">
	.st0{fill:#F6C20E;}
</style>
<g>
	<g>
		<path class="st0" d="M499.9,163.9L260.5,1.4c-2.7-1.8-6.3-1.8-9,0L12.1,163.9c-2.2,1.5-3.5,4-3.5,6.6V504c0,4.4,3.6,8,8,8h478.9
			c4.4,0,8-3.6,8-8V170.5C503.4,167.8,502.1,165.3,499.9,163.9z M196.7,496h-86.6v-86.6h18.2v43.3c0,4.4,3.6,8,8,8h34.2
			c4.4,0,8-3.6,8-8v-43.3h18.2L196.7,496L196.7,496z M93,205.2v-18.2h326v18.2H93z M144.3,444.7v-35.3h18.2v35.3H144.3z
			 M196.7,393.4h-26.2h-34.2h-26.2v-86.6h18.2v43.3c0,4.4,3.6,8,8,8h34.2c4.4,0,8-3.6,8-8v-43.3h18.2V393.4z M144.3,342v-35.3h18.2
			V342H144.3z M299.3,496h-86.6v-86.6h18.2v43.3c0,4.4,3.6,8,8,8h34.2c4.4,0,8-3.6,8-8v-43.3h18.2L299.3,496L299.3,496z
			 M246.9,444.7v-35.3h18.2v35.3H246.9z M487.4,496h-69.5V324.4c0-4.4-3.6-8-8-8c-4.4,0-8,3.6-8,8V496h-86.6v-94.6c0-4.4-3.6-8-8-8
			h-94.6v-94.6c0-4.4-3.6-8-8-8h-94.6v-69.5h291.8v68.9c0,4.4,3.6,8,8,8c4.4,0,8-3.6,8-8v-68.9h9.1c4.4,0,8-3.6,8-8V179
			c0-4.4-3.6-8-8-8H85c-4.4,0-8,3.6-8,8v34.2c0,4.4,3.6,8,8,8h9.1V496H24.6V174.7L256,17.7l231.4,157L487.4,496L487.4,496z"/>
	</g>
</g>
<g>
	<g>
		<path class="st0" d="M290.2,68.4h-68.4c-4.4,0-8,3.6-8,8s3.6,8,8,8h68.4c4.4,0,8-3.6,8-8S294.6,68.4,290.2,68.4z"/>
	</g>
</g>
<g>
	<g>
		<path class="st0" d="M290.2,102.6h-68.4c-4.4,0-8,3.6-8,8s3.6,8,8,8h68.4c4.4,0,8-3.6,8-8S294.6,102.6,290.2,102.6z"/>
	</g>
</g>
<g>
	<g>
		<path class="st0" d="M290.2,136.8h-68.4c-4.4,0-8,3.6-8,8s3.6,8,8,8h68.4c4.4,0,8-3.6,8-8S294.6,136.8,290.2,136.8z"/>
	</g>
</g>
<g>
	<g>
		<path class="st0" d="M170.5,367.7h-34.2c-4.4,0-8,3.6-8,8c0,4.4,3.6,8,8,8h34.2c4.4,0,8-3.6,8-8
			C178.5,371.3,174.9,367.7,170.5,367.7z"/>
	</g>
</g>
<g>
	<g>
		<path class="st0" d="M170.5,470.3h-34.2c-4.4,0-8,3.6-8,8c0,4.4,3.6,8,8,8h34.2c4.4,0,8-3.6,8-8
			C178.5,473.9,174.9,470.3,170.5,470.3z"/>
	</g>
</g>
<g>
	<g>
		<path class="st0" d="M273.1,470.3h-34.2c-4.4,0-8,3.6-8,8c0,4.4,3.6,8,8,8h34.2c4.4,0,8-3.6,8-8
			C281.1,473.9,277.5,470.3,273.1,470.3z"/>
	</g>
</g>
</svg>
