<?xml version="1.0" encoding="utf-8"?>
<!-- Generator: Adobe Illustrator 22.1.0, SVG Export Plug-In . SVG Version: 6.00 Build 0)  -->
<svg version="1.1" id="Capa_1" xmlns="http://www.w3.org/2000/svg" xmlns:xlink="http://www.w3.org/1999/xlink" x="0px" y="0px"
	 viewBox="0 0 512 512" style="enable-background:new 0 0 512 512;" xml:space="preserve">
<style type="text/css">
	.st0{fill:#F6C20E;}
</style>
<g>
	<g>
		<path class="st0" d="M336,160.8c-1.2-3.6-4.3-6.3-8.1-6.8l-43.5-6.3l-19.5-39.4c-1.7-3.4-5.2-5.6-9-5.6h0c-3.8,0-7.3,2.2-9,5.6
			l-19.4,39.4l-43.5,6.3c-3.8,0.5-6.9,3.2-8.1,6.8s-0.2,7.6,2.5,10.3l31.5,30.7l-7.4,43.3c-0.6,3.8,0.9,7.5,4,9.8
			c1.7,1.3,3.8,1.9,5.9,1.9c1.6,0,3.2-0.4,4.7-1.1l38.9-20.5l38.9,20.4c3.4,1.8,7.5,1.5,10.5-0.8c3.1-2.2,4.6-6,4-9.8l-7.4-43.3
			l31.5-30.7C336.2,168.4,337.2,164.4,336,160.8z M284.3,191.1c-2.4,2.3-3.4,5.6-2.9,8.9l4.9,28.5L260.7,215c-2.9-1.5-6.4-1.5-9.3,0
			l-25.6,13.5l4.9-28.5c0.6-3.2-0.5-6.6-2.9-8.9L207,170.9l28.7-4.2c3.3-0.5,6.1-2.5,7.5-5.5l12.8-26l12.8,26c1.5,3,4.3,5,7.5,5.5
			l28.7,4.2L284.3,191.1z"/>
	</g>
</g>
<g>
	<g>
		<path class="st0" d="M480.7,439.4l-82.7-143.8C423,264.4,438,224.9,438,182C438,81.6,356.4,0,256,0S74,81.6,74,182
			c0,42.9,15,82.4,39.9,113.6L31.3,439.4c-1.9,3.3-1.8,7.4,0.4,10.6c2.1,3.2,5.9,4.8,9.6,4.3l64.5-8.7l24.8,60.2
			c1.4,3.5,4.8,5.9,8.6,6.2c0.2,0,0.4,0,0.7,0c3.6,0,6.9-1.9,8.7-5l83.4-144.5c0,0,0,0,0-0.1c7.9,1,15.9,1.6,24.1,1.6
			s16.2-0.5,24.1-1.6c0,0,0,0,0,0.1L363.6,507c1.8,3.1,5.1,5,8.7,5c0.2,0,0.4,0,0.7,0c3.8-0.3,7.1-2.6,8.6-6.2l24.8-60.2l64.5,8.7
			c3.8,0.5,7.5-1.2,9.6-4.3C482.5,446.8,482.6,442.7,480.7,439.4z M141.3,479.4l-18-43.8l16.2-26.4c2.9-4.7,1.4-10.9-3.3-13.8
			s-10.9-1.4-13.8,3.3L106,425.4l-47.3,6.4L128,311.2c22.7,22.5,51.2,39,83.1,47.2L141.3,479.4z M256,344c-89.3,0-162-72.7-162-162
			S166.7,20,256,20s162,72.7,162,162S345.3,344,256,344z M406,425.4l-16.3-26.7c-2.9-4.7-9-6.2-13.8-3.3c-4.7,2.9-6.2,9-3.3,13.8
			l16.2,26.4l-18,43.8l-69.8-121c31.9-8.1,60.5-24.7,83.1-47.2l69.3,120.5L406,425.4z"/>
	</g>
</g>
<g>
	<g>
		<path class="st0" d="M256,52c-22.3,0-44.3,5.8-63.7,16.6c-4.8,2.7-6.5,8.8-3.8,13.6s8.8,6.5,13.6,3.8c16.4-9.2,35-14.1,53.9-14.1
			c60.7,0,110,49.3,110,110c0,16.6-3.6,32.5-10.7,47.3c-2.4,5-0.3,11,4.7,13.3c1.4,0.7,2.9,1,4.3,1c3.7,0,7.3-2.1,9-5.7
			c8.4-17.5,12.6-36.4,12.6-55.9C386,110.3,327.7,52,256,52z"/>
	</g>
</g>
<g>
	<g>
		<path class="st0" d="M349,258.4c-4-3.8-10.3-3.8-14.1,0.2l-0.2,0.2c-3.9,4-3.8,10.3,0.2,14.1c1.9,1.9,4.5,2.8,7,2.8
			c2.6,0,5.2-1,7.2-3l0.3-0.3C353.1,268.6,353,262.3,349,258.4z"/>
	</g>
</g>
<g>
	<g>
		<path class="st0" d="M322.6,282.3c-2.7-4.8-8.7-6.6-13.6-3.9c-16.1,8.9-34.5,13.6-53,13.6c-60.7,0-110-49.3-110-110
			c0-15.9,3.3-31.2,9.8-45.5c2.3-5,0.1-11-5-13.2c-5-2.3-11-0.1-13.2,5c-7.7,17-11.6,35.1-11.6,53.8c0,71.7,58.3,130,130,130
			c21.9,0,43.6-5.6,62.7-16.1C323.5,293.3,325.3,287.2,322.6,282.3z"/>
	</g>
</g>
<g>
	<g>
		<path class="st0" d="M175,92.9c-4-3.8-10.4-3.5-14.1,0.5l-0.2,0.2c-3.8,4.1-3.5,10.4,0.5,14.1c1.9,1.8,4.4,2.7,6.8,2.7
			c2.7,0,5.4-1.1,7.3-3.2l0.2-0.2C179.3,103,179,96.7,175,92.9z"/>
	</g>
</g>
</svg>
